<svg width="34" height="34" viewBox="0 0 34 34" fill="none" xmlns="http://www.w3.org/2000/svg">
<path d="M28.6876 17.8074V16.9999V16.1818L30.7276 14.3968C31.1036 14.0653 31.3504 13.6116 31.4243 13.1158C31.4982 12.62 31.3944 12.1141 31.1313 11.6874L28.6238 7.43738C28.4375 7.11466 28.1696 6.84661 27.847 6.66012C27.5243 6.47363 27.1584 6.37526 26.7857 6.37488C26.5548 6.37311 26.3251 6.409 26.1057 6.48113L23.5238 7.35238C23.0781 7.05617 22.6131 6.78995 22.132 6.55551L21.5901 3.87801C21.4929 3.38884 21.2268 2.94943 20.8383 2.63669C20.4498 2.32396 19.9637 2.15783 19.4651 2.16738H14.4926C13.994 2.15783 13.5078 2.32396 13.1194 2.63669C12.7309 2.94943 12.4647 3.38884 12.3676 3.87801L11.8257 6.55551C11.3411 6.7899 10.8726 7.0561 10.4232 7.35238L7.89446 6.43863C7.67271 6.38086 7.44308 6.35933 7.21446 6.37488C6.84181 6.37526 6.47582 6.47363 6.1532 6.66012C5.83057 6.84661 5.56266 7.11466 5.37633 7.43738L2.86884 11.6874C2.62083 12.1134 2.52868 12.6125 2.60815 13.099C2.68762 13.5855 2.93378 14.0293 3.30446 14.3543L5.31258 16.1924V17.818L3.30446 19.603C2.92331 19.9303 2.67042 20.382 2.59067 20.878C2.51092 21.3739 2.60947 21.8821 2.86884 22.3124L5.37633 26.5624C5.56266 26.8851 5.83057 27.1532 6.1532 27.3396C6.47582 27.5261 6.84181 27.6245 7.21446 27.6249C7.44539 27.6267 7.67507 27.5908 7.89446 27.5186L10.4763 26.6474C10.9221 26.9436 11.3871 27.2098 11.8682 27.4443L12.4101 30.1218C12.5072 30.6109 12.7734 31.0503 13.1619 31.3631C13.5503 31.6758 14.0365 31.8419 14.5351 31.8324H19.5501C20.0487 31.8419 20.5348 31.6758 20.9233 31.3631C21.3118 31.0503 21.5779 30.6109 21.6751 30.1218L22.217 27.4443C22.7015 27.2099 23.1701 26.9437 23.6195 26.6474L26.1907 27.5186C26.4101 27.5908 26.6398 27.6267 26.8707 27.6249C27.2434 27.6245 27.6093 27.5261 27.932 27.3396C28.2546 27.1532 28.5225 26.8851 28.7088 26.5624L31.1313 22.3124C31.3793 21.8863 31.4715 21.3873 31.392 20.9008C31.3125 20.4143 31.0664 19.9705 30.6957 19.6455L28.6876 17.8074ZM26.7857 25.4999L23.1413 24.2674C22.2882 24.99 21.3132 25.5549 20.262 25.9355L19.5076 29.7499H14.4926L13.7382 25.978C12.6953 25.5866 11.7255 25.0227 10.8695 24.3099L7.21446 25.4999L4.70696 21.2499L7.59696 18.6999C7.4005 17.6 7.4005 16.4741 7.59696 15.3743L4.70696 12.7499L7.21446 8.49988L10.8588 9.73238C11.712 9.00977 12.687 8.4449 13.7382 8.06426L14.4926 4.24988H19.5076L20.262 8.02176C21.3049 8.41321 22.2746 8.9771 23.1307 9.68988L26.7857 8.49988L29.2932 12.7499L26.4032 15.2999C26.5997 16.3997 26.5997 17.5257 26.4032 18.6255L29.2932 21.2499L26.7857 25.4999Z" fill="white"/>
<path d="M17 23.375C15.7391 23.375 14.5066 23.0011 13.4582 22.3006C12.4099 21.6001 11.5928 20.6045 11.1103 19.4396C10.6278 18.2747 10.5015 16.9929 10.7475 15.7563C10.9935 14.5197 11.6006 13.3838 12.4922 12.4922C13.3838 11.6006 14.5197 10.9935 15.7563 10.7475C16.9929 10.5015 18.2747 10.6278 19.4396 11.1103C20.6045 11.5928 21.6001 12.4099 22.3006 13.4582C23.0011 14.5066 23.375 15.7391 23.375 17C23.3835 17.8396 23.2245 18.6724 22.9071 19.4497C22.5897 20.227 22.1205 20.9331 21.5268 21.5268C20.9331 22.1205 20.227 22.5897 19.4497 22.9071C18.6724 23.2245 17.8396 23.3835 17 23.375ZM17 12.75C16.4383 12.7369 15.8798 12.8379 15.3582 13.0469C14.8367 13.2558 14.363 13.5684 13.9657 13.9657C13.5684 14.363 13.2558 14.8367 13.0469 15.3582C12.8379 15.8798 12.7369 16.4383 12.75 17C12.7369 17.5617 12.8379 18.1202 13.0469 18.6418C13.2558 19.1633 13.5684 19.6371 13.9657 20.0343C14.363 20.4316 14.8367 20.7442 15.3582 20.9532C15.8798 21.1621 16.4383 21.2631 17 21.25C17.5617 21.2631 18.1202 21.1621 18.6418 20.9532C19.1633 20.7442 19.6371 20.4316 20.0343 20.0343C20.4316 19.6371 20.7442 19.1633 20.9532 18.6418C21.1621 18.1202 21.2631 17.5617 21.25 17C21.2631 16.4383 21.1621 15.8798 20.9532 15.3582C20.7442 14.8367 20.4316 14.363 20.0343 13.9657C19.6371 13.5684 19.1633 13.2558 18.6418 13.0469C18.1202 12.8379 17.5617 12.7369 17 12.75Z" fill="white"/>
</svg>
